<?xml version="1.0" encoding="UTF-8" standalone="no"?>
<svg
   id="Layer_1"
   data-name="Layer 1"
   viewBox="0 0 152.62 96.96"
   version="1.1"
   sodipodi:docname="yandex_disk_icon.svg"
   inkscape:export-filename="yandex_disk_icon_transparent.png"
   inkscape:export-xdpi="151.49001"
   inkscape:export-ydpi="151.49001"
   inkscape:version="1.2.2 (b0a8486541, 2022-12-01)"
   xmlns:inkscape="http://www.inkscape.org/namespaces/inkscape"
   xmlns:sodipodi="http://sodipodi.sourceforge.net/DTD/sodipodi-0.dtd"
   xmlns:xlink="http://www.w3.org/1999/xlink"
   xmlns="http://www.w3.org/2000/svg"
   xmlns:svg="http://www.w3.org/2000/svg">
  <sodipodi:namedview
     id="namedview13"
     pagecolor="#ffffff"
     bordercolor="#000000"
     borderopacity="0.25"
     inkscape:showpageshadow="2"
     inkscape:pageopacity="0.0"
     inkscape:pagecheckerboard="0"
     inkscape:deskcolor="#d1d1d1"
     showgrid="false"
     inkscape:zoom="5.2959984"
     inkscape:cx="35.781733"
     inkscape:cy="42.012853"
     inkscape:window-width="2560"
     inkscape:window-height="1355"
     inkscape:window-x="0"
     inkscape:window-y="0"
     inkscape:window-maximized="1"
     inkscape:current-layer="Layer_1" />
  <defs
     id="defs4">
    <linearGradient
       inkscape:collect="always"
       id="linearGradient3967">
      <stop
         style="stop-color:#686868;stop-opacity:0;"
         offset="0"
         id="stop3963" />
      <stop
         style="stop-color:#373737;stop-opacity:0;"
         offset="1"
         id="stop3965" />
    </linearGradient>
    <linearGradient
       id="linearGradient3884">
      <stop
         style="stop-color:#b3b3b3;stop-opacity:0;"
         offset="0"
         id="stop3890" />
      <stop
         style="stop-color:#b3b3b3;stop-opacity:1;"
         offset="1"
         id="stop3888" />
    </linearGradient>
    <style
       id="style2">.cls-1{fill:#4b82d7;}.cls-2{fill:#e7e7e7;}</style>
    <linearGradient
       inkscape:collect="always"
       xlink:href="#linearGradient3967"
       id="linearGradient3973"
       x1="-2.8323104"
       y1="53.342167"
       x2="155.40036"
       y2="53.342167"
       gradientUnits="userSpaceOnUse"
       gradientTransform="translate(-27.970305,-129.9599)" />
  </defs>
  <rect
     style="fill:url(#linearGradient3973);fill-opacity:1;fill-rule:nonzero;stroke-width:1.093;stroke-dasharray:none"
     id="rect241"
     width="158.23267"
     height="158.42151"
     x="-30.802624"
     y="-155.82851"
     transform="rotate(89.947868)"
     ry="31.202358"
     inkscape:label="rect241" />
  <path
     d="M197.18,302.32c-12.74-11.66-25.77-16.9-41.34-12.73s-24.25,15.23-29.44,31.7a43.27,43.27,0,0,1-10.22,16.94l49-13.67,48.56-13A39.78,39.78,0,0,1,197.18,302.32Z"
     id="path6"
     transform="translate(-95.45,-288.17)" />
  <path
     class="cls-1"
     d="M247.67,326.27c-4.26-15.8-41.69-19.53-83.61-8.41S91.59,351.07,95.85,367c3,11,21.86,16.22,47.15,14.6a6.71,6.71,0,0,1-2.09-3.32c-2.31-8.61,13.05-17.51,33.22-22.91s37.8-5.12,40.05,3.28a6.73,6.73,0,0,1-.15,3.92C236.81,351.25,250.64,337.3,247.67,326.27Z"
     id="path8"
     transform="translate(-95.45 -288.17)" />
  <path
     class="cls-2"
     d="M181.1,381.47c20.31-5.44,35.49-14.59,33.24-23s-20-8.74-40.28-3.29-35.51,14.52-33.24,23S160.79,386.92,181.1,381.47Z"
     id="path10"
     transform="translate(-95.45 -288.17)" />
</svg>
